<svg width="20" height="21" viewBox="0 0 20 21" fill="none" xmlns="http://www.w3.org/2000/svg">
<path d="M18.1192 10.7758L10.6192 2.44249C10.3033 2.09082 9.69667 2.09082 9.38084 2.44249L1.88084 10.7758C1.77289 10.8955 1.70203 11.0439 1.67688 11.2031C1.65173 11.3623 1.67337 11.5254 1.73917 11.6725C1.87251 11.9733 2.17084 12.1667 2.50001 12.1667H4.16667V18C4.16667 18.221 4.25447 18.433 4.41075 18.5892C4.56703 18.7455 4.77899 18.8333 5.00001 18.8333H7.50001C7.72102 18.8333 7.93298 18.7455 8.08926 18.5892C8.24554 18.433 8.33334 18.221 8.33334 18V14.6667H11.6667V18C11.6667 18.221 11.7545 18.433 11.9108 18.5892C12.067 18.7455 12.279 18.8333 12.5 18.8333H15C15.221 18.8333 15.433 18.7455 15.5893 18.5892C15.7455 18.433 15.8333 18.221 15.8333 18V12.1667H17.5C17.6614 12.1673 17.8195 12.1211 17.955 12.0334C18.0906 11.9458 18.1977 11.8207 18.2633 11.6732C18.329 11.5258 18.3503 11.3624 18.3247 11.2031C18.2991 11.0437 18.2277 10.8953 18.1192 10.7758V10.7758Z" fill="#81C999"/>
</svg>
