<svg width="20" height="20" viewBox="0 0 20 20" fill="none" xmlns="http://www.w3.org/2000/svg">
<path d="M5.274 6.91499C5.474 6.91499 5.668 6.94399 5.85 7.00099C6.54016 6.22769 7.30485 5.52429 8.133 4.90099C8.04788 4.54491 8.06451 4.17208 8.181 3.82499C7.24689 3.15554 6.23604 2.60026 5.17 2.17099C4.16517 2.79248 3.28871 3.60071 2.588 4.55199C3.107 5.47199 3.724 6.32899 4.426 7.10899C4.682 6.98499 4.969 6.91499 5.274 6.91499ZM3.316 8.87199C3.316 8.59699 3.374 8.33499 3.475 8.09899C2.84559 7.40726 2.27839 6.66137 1.78 5.86999C1.1345 7.15131 0.798822 8.56627 0.8 10.001C0.798277 11.6576 1.24583 13.2836 2.095 14.706C2.38545 13.0794 2.93225 11.5092 3.715 10.054C3.45596 9.71442 3.31576 9.29909 3.316 8.87199V8.87199ZM10.036 2.48899C10.553 2.48899 11.021 2.68999 11.372 3.01799C12.4047 2.57223 13.4827 2.23962 14.587 2.02599C13.1924 1.22101 11.6102 0.798114 10 0.799994C8.89471 0.799304 7.7984 0.998509 6.764 1.38799C7.56039 1.78134 8.3221 2.24131 9.041 2.76299C9.333 2.58899 9.672 2.48899 10.036 2.48899ZM12.962 11.708C13.0823 11.4552 13.256 11.2314 13.471 11.052C12.8984 9.29365 11.9911 7.66268 10.799 6.24899C10.4906 6.37951 10.1538 6.42865 9.82095 6.3917C9.48809 6.35476 9.1703 6.23296 8.898 6.03799C8.18877 6.57671 7.53127 7.18032 6.934 7.84099C7.08439 8.0791 7.18085 8.34723 7.21661 8.62657C7.25237 8.90591 7.22656 9.18969 7.141 9.45799C8.89128 10.6288 10.8793 11.3972 12.962 11.708V11.708ZM15.501 14.351C15.5741 15.3785 15.5469 16.4107 15.42 17.433C16.9995 16.2808 18.1716 14.6562 18.767 12.794C18.0497 12.9678 17.3208 13.0898 16.586 13.159C16.5001 13.4233 16.3589 13.6663 16.1718 13.8718C15.9848 14.0773 15.7561 14.2407 15.501 14.351V14.351ZM12.504 13.024C10.2791 12.6534 8.16071 11.806 6.294 10.54C5.86879 10.8015 5.3596 10.8902 4.871 10.788C3.97252 12.489 3.42854 14.3546 3.272 16.272C4.15358 17.22 5.22525 17.9714 6.417 18.477C7.92767 16.1527 10.0282 14.2709 12.504 13.024V13.024ZM16.176 3.18099C14.7322 3.3222 13.3184 3.68232 11.983 4.24899C12.0196 4.61194 11.9534 4.97785 11.792 5.30499C13.1167 6.85855 14.1252 8.65585 14.761 10.596C15.14 10.6028 15.5088 10.7193 15.8229 10.9314C16.1371 11.1435 16.383 11.4421 16.531 11.791C17.417 11.701 18.279 11.531 19.109 11.287C19.3212 9.79898 19.1648 8.28162 18.6534 6.86823C18.142 5.45483 17.2913 4.18867 16.176 3.18099V3.18099ZM13.489 14.069C11.1828 15.1489 9.20695 16.8253 7.766 18.925C8.49658 19.1079 9.24688 19.2002 10 19.2C11.3413 19.2012 12.6664 18.9079 13.882 18.341C14.072 17.413 14.172 16.454 14.172 15.472C14.172 15.117 14.156 14.765 14.129 14.417C13.8954 14.3428 13.6782 14.2247 13.489 14.069Z" fill="#81C999"/>
</svg>
