<svg width="22" height="23" viewBox="0 0 22 23" fill="none" xmlns="http://www.w3.org/2000/svg">
<g clip-path="url(#clip0)">
<path d="M2.82761 9.58332C2.61151 9.58332 2.42242 9.66957 2.29637 9.82291C2.17031 9.96666 2.11628 10.1775 2.1433 10.4075L2.5935 13.2729C2.66554 13.8958 3.18777 14.375 3.72802 14.375H6.42926C7.00552 14.375 7.65382 13.8383 7.77988 13.2442L8.73431 10.1871C8.77033 10.0625 8.74332 9.88041 8.68029 9.76541C8.58124 9.65041 8.42817 9.58332 8.23008 9.58332H2.82761V9.58332ZM6.42926 16.2917H3.72802C2.26935 16.2917 0.990769 15.0842 0.810687 13.5508L0.36048 10.6854C0.261435 9.87082 0.477534 9.10416 0.945748 8.54832C1.41396 7.99249 2.09828 7.66666 2.82761 7.66666H8.23008C8.97742 7.66666 9.65273 8.00207 10.0849 8.58666C10.184 8.73041 10.274 8.88374 10.3461 9.05624C10.7332 8.96999 11.1294 8.96999 11.5076 9.05624C11.5796 8.88374 11.6697 8.73041 11.7777 8.58666C12.2009 8.00207 12.8762 7.66666 13.6326 7.66666H19.035C19.7644 7.66666 20.4487 7.99249 20.9169 8.54832C21.3761 9.10416 21.5922 9.87082 21.5022 10.6471L21.0429 13.5892C20.8719 15.0842 19.5843 16.2917 18.1346 16.2917H15.4334C14.0287 16.2917 12.6601 15.1512 12.318 13.7042L11.5076 11.1071C11.1654 10.8387 10.6882 10.8387 10.3461 11.1071L9.51767 13.7712C9.19352 15.1608 7.8339 16.2917 6.42926 16.2917ZM13.6326 9.58332C13.4345 9.58332 13.2814 9.65041 13.1823 9.76541C13.1103 9.88041 13.0923 10.0625 13.1373 10.2542L14.0467 13.1771C14.2088 13.8383 14.8571 14.375 15.4334 14.375H18.1346C18.6659 14.375 19.1971 13.8958 19.2601 13.3112L19.7193 10.3692C19.7464 10.1775 19.6923 9.96666 19.5663 9.82291C19.4991 9.74467 19.4169 9.68276 19.3252 9.64142C19.2335 9.60007 19.1346 9.58026 19.035 9.58332H13.6326Z" fill="#81C999"/>
</g>
<defs>
<clipPath id="clip0">
<rect width="21.6099" height="23" fill="white" transform="translate(0.126373)"/>
</clipPath>
</defs>
</svg>
