<svg width="18" height="19" viewBox="0 0 18 19" fill="none" xmlns="http://www.w3.org/2000/svg">
<g clip-path="url(#clip0)">
<path d="M2.78367 10.4471C2.61798 10.5024 2.46741 10.5954 2.34391 10.7189C2.22041 10.8424 2.12735 10.993 2.07211 11.1587L0 17.375L0.164883 17.5399L3.43055 14.2742C3.40734 14.1842 3.37535 14.0974 3.37535 14C3.37535 13.3788 3.87914 12.875 4.50035 12.875C5.12156 12.875 5.62535 13.3788 5.62535 14C5.62535 14.6212 5.12156 15.125 4.50035 15.125C4.40297 15.125 4.31613 15.093 4.22613 15.0698L0.960469 18.3355L1.125 18.5L7.34133 16.4279C7.50705 16.3727 7.65764 16.2797 7.78116 16.1562C7.90467 16.0326 7.99771 15.8821 8.05289 15.7163L9.21551 12.7607L5.73926 9.28449L2.78367 10.4471ZM12.9814 1.49563L6.54399 8.50895L9.98402 11.949L16.9973 5.51153C19.9828 2.87235 15.5999 -1.46664 12.9814 1.49563Z" fill="#81C999"/>
</g>
<defs>
<clipPath id="clip0">
<rect width="18" height="18" fill="white" transform="translate(0 0.5)"/>
</clipPath>
</defs>
</svg>
