<svg width="22" height="23" viewBox="0 0 22 23" fill="none" xmlns="http://www.w3.org/2000/svg">
<path d="M15.5833 2.33334H6.41665C5.93042 2.33334 5.4641 2.5265 5.12028 2.87031C4.77647 3.21413 4.58331 3.68045 4.58331 4.16668V19.75C4.58331 19.9931 4.67989 20.2263 4.8518 20.3982C5.02371 20.5701 5.25686 20.6667 5.49998 20.6667H16.5C16.7431 20.6667 16.9763 20.5701 17.1482 20.3982C17.3201 20.2263 17.4166 19.9931 17.4166 19.75V4.16668C17.4166 3.68045 17.2235 3.21413 16.8797 2.87031C16.5359 2.5265 16.0695 2.33334 15.5833 2.33334ZM10.0833 15.1667H7.33331V13.3333H10.0833V15.1667ZM10.0833 11.5H7.33331V9.66668H10.0833V11.5ZM10.0833 7.83334H7.33331V6.00001H10.0833V7.83334ZM14.6666 15.1667H11.9166V13.3333H14.6666V15.1667ZM14.6666 11.5H11.9166V9.66668H14.6666V11.5ZM14.6666 7.83334H11.9166V6.00001H14.6666V7.83334Z" fill="#81C999"/>
</svg>
