<svg width="26" height="26" viewBox="0 0 26 26" fill="none" xmlns="http://www.w3.org/2000/svg">
<path d="M22.3392 5.6875H21.1296C21.1284 5.6875 21.1272 5.68798 21.1263 5.68884C21.1255 5.6897 21.125 5.69086 21.125 5.69207V21.125C21.125 21.556 21.2962 21.9693 21.601 22.274C21.9057 22.5788 22.319 22.75 22.75 22.75C23.181 22.75 23.5943 22.5788 23.899 22.274C24.2038 21.9693 24.375 21.556 24.375 21.125V7.72332C24.375 7.18339 24.1605 6.66557 23.7787 6.28378C23.3969 5.90199 22.8791 5.6875 22.3392 5.6875Z" fill="#00A043"/>
<path d="M19.5 21.125V3.65625C19.5 3.3895 19.4475 3.12537 19.3454 2.87892C19.2433 2.63248 19.0937 2.40856 18.9051 2.21994C18.7164 2.03132 18.4925 1.8817 18.2461 1.77962C17.9996 1.67754 17.7355 1.625 17.4688 1.625H3.65625C3.11753 1.625 2.60087 1.83901 2.21994 2.21994C1.83901 2.60087 1.625 3.11753 1.625 3.65625V21.5312C1.625 22.2855 1.92461 23.0088 2.45792 23.5421C2.99122 24.0754 3.71454 24.375 4.46875 24.375H21.8791C21.8868 24.3751 21.8944 24.3736 21.9015 24.3707C21.9086 24.3678 21.9151 24.3635 21.9205 24.358C21.926 24.3526 21.9303 24.3461 21.9332 24.339C21.9361 24.3319 21.9376 24.3243 21.9375 24.3166C21.9375 24.3038 21.9332 24.2914 21.9254 24.2813C21.9176 24.2712 21.9067 24.264 21.8943 24.2607C21.207 24.0722 20.6006 23.6633 20.1681 23.0969C19.7355 22.5304 19.5008 21.8377 19.5 21.125ZM4.875 6.5C4.875 6.28451 4.9606 6.07785 5.11298 5.92548C5.26535 5.7731 5.47201 5.6875 5.6875 5.6875H8.9375C9.15299 5.6875 9.35965 5.7731 9.51202 5.92548C9.6644 6.07785 9.75 6.28451 9.75 6.5V9.75C9.75 9.96549 9.6644 10.1722 9.51202 10.3245C9.35965 10.4769 9.15299 10.5625 8.9375 10.5625H5.6875C5.47201 10.5625 5.26535 10.4769 5.11298 10.3245C4.9606 10.1722 4.875 9.96549 4.875 9.75V6.5ZM15.4375 20.3125H5.71035C5.27312 20.3125 4.89785 19.9763 4.87602 19.5391C4.87072 19.4292 4.88779 19.3195 4.92618 19.2164C4.96457 19.1133 5.02349 19.0191 5.09936 18.9395C5.17524 18.8599 5.26648 18.7965 5.36758 18.7532C5.46868 18.7099 5.57751 18.6875 5.6875 18.6875H15.4146C15.8519 18.6875 16.2271 19.0237 16.249 19.4609C16.2543 19.5708 16.2372 19.6805 16.1988 19.7836C16.1604 19.8867 16.1015 19.9809 16.0256 20.0605C15.9498 20.1401 15.8585 20.2035 15.7574 20.2468C15.6563 20.2901 15.5475 20.3125 15.4375 20.3125ZM15.4375 17.0625H5.71035C5.27312 17.0625 4.89785 16.7263 4.87602 16.2891C4.87072 16.1792 4.88779 16.0695 4.92618 15.9664C4.96457 15.8633 5.02349 15.7691 5.09936 15.6895C5.17524 15.6099 5.26648 15.5465 5.36758 15.5032C5.46868 15.4599 5.57751 15.4375 5.6875 15.4375H15.4146C15.8519 15.4375 16.2271 15.7737 16.249 16.2109C16.2543 16.3208 16.2372 16.4305 16.1988 16.5336C16.1604 16.6367 16.1015 16.7309 16.0256 16.8105C15.9498 16.8901 15.8585 16.9535 15.7574 16.9968C15.6563 17.0401 15.5475 17.0625 15.4375 17.0625ZM15.4375 13.8125H5.71035C5.27312 13.8125 4.89785 13.4763 4.87602 13.0391C4.87072 12.9292 4.88779 12.8195 4.92618 12.7164C4.96457 12.6133 5.02349 12.5191 5.09936 12.4395C5.17524 12.3599 5.26648 12.2965 5.36758 12.2532C5.46868 12.2099 5.57751 12.1875 5.6875 12.1875H15.4146C15.8519 12.1875 16.2271 12.5237 16.249 12.9609C16.2543 13.0708 16.2372 13.1805 16.1988 13.2836C16.1604 13.3867 16.1015 13.4809 16.0256 13.5605C15.9498 13.6401 15.8585 13.7035 15.7574 13.7468C15.6563 13.7901 15.5475 13.8125 15.4375 13.8125ZM15.4375 10.5625H12.2104C11.7731 10.5625 11.3979 10.2263 11.376 9.7891C11.3707 9.67924 11.3878 9.56946 11.4262 9.46639C11.4646 9.36332 11.5235 9.26912 11.5994 9.1895C11.6752 9.10987 11.7665 9.04648 11.8676 9.00317C11.9687 8.95985 12.0775 8.93751 12.1875 8.9375H15.4146C15.8519 8.9375 16.2271 9.27367 16.249 9.7109C16.2543 9.82076 16.2372 9.93054 16.1988 10.0336C16.1604 10.1367 16.1015 10.2309 16.0256 10.3105C15.9498 10.3901 15.8585 10.4535 15.7574 10.4968C15.6563 10.5401 15.5475 10.5625 15.4375 10.5625ZM15.4375 7.3125H12.2104C11.7731 7.3125 11.3979 6.97633 11.376 6.5391C11.3707 6.42924 11.3878 6.31946 11.4262 6.21639C11.4646 6.11332 11.5235 6.01912 11.5994 5.9395C11.6752 5.85987 11.7665 5.79648 11.8676 5.75317C11.9687 5.70985 12.0775 5.68751 12.1875 5.6875H15.4146C15.8519 5.6875 16.2271 6.02367 16.249 6.4609C16.2543 6.57076 16.2372 6.68054 16.1988 6.78361C16.1604 6.88668 16.1015 6.98088 16.0256 7.0605C15.9498 7.14013 15.8585 7.20352 15.7574 7.24683C15.6563 7.29015 15.5475 7.31249 15.4375 7.3125Z" fill="#00A043"/>
</svg>
