<svg width="38" height="38" viewBox="0 0 38 38" fill="none" xmlns="http://www.w3.org/2000/svg">
<g clip-path="url(#clip0)">
<path d="M9.5 14.2499C10.7598 14.2499 11.968 14.7504 12.8588 15.6412C13.7496 16.532 14.25 17.7401 14.25 18.9999C14.25 20.2597 13.7496 21.4679 12.8588 22.3587C11.968 23.2495 10.7598 23.7499 9.5 23.7499C8.24022 23.7499 7.03204 23.2495 6.14124 22.3587C5.25044 21.4679 4.75 20.2597 4.75 18.9999C4.75 17.7401 5.25044 16.532 6.14124 15.6412C7.03204 14.7504 8.24022 14.2499 9.5 14.2499ZM15.7344 15.549C15.0193 14.2553 13.9195 13.2159 12.5875 12.5751C11.2554 11.9342 9.75694 11.7235 8.29978 11.9722C6.84262 12.2209 5.49888 12.9166 4.45477 13.963C3.41065 15.0094 2.71785 16.3547 2.47237 17.8124H1.1875C0.872555 17.8124 0.57051 17.9375 0.347811 18.1602C0.125111 18.3829 0 18.685 0 18.9999C0 19.3149 0.125111 19.6169 0.347811 19.8396C0.57051 20.0623 0.872555 20.1874 1.1875 20.1874H2.47237C2.7671 21.9519 3.71476 23.5409 5.12711 24.6388C6.53946 25.7367 8.31312 26.2632 10.0958 26.1136C11.8784 25.964 13.5395 25.1494 14.7492 23.8315C15.9588 22.5135 16.6284 20.7888 16.625 18.9999C16.625 18.37 16.8752 17.7659 17.3206 17.3205C17.766 16.8751 18.3701 16.6249 19 16.6249C19.6299 16.6249 20.234 16.8751 20.6794 17.3205C21.1248 17.7659 21.375 18.37 21.375 18.9999C21.3716 20.7888 22.0412 22.5135 23.2508 23.8315C24.4605 25.1494 26.1216 25.964 27.9042 26.1136C29.6869 26.2632 31.4605 25.7367 32.8729 24.6388C34.2852 23.5409 35.2329 21.9519 35.5276 20.1874H36.8125C37.1274 20.1874 37.4295 20.0623 37.6522 19.8396C37.8749 19.6169 38 19.3149 38 18.9999C38 18.685 37.8749 18.3829 37.6522 18.1602C37.4295 17.9375 37.1274 17.8124 36.8125 17.8124H35.5276C35.2821 16.3547 34.5894 15.0094 33.5452 13.963C32.5011 12.9166 31.1574 12.2209 29.7002 11.9722C28.2431 11.7235 26.7446 11.9342 25.4125 12.5751C24.0805 13.2159 22.9807 14.2553 22.2656 15.549C21.3841 14.713 20.2149 14.2478 19 14.2499C17.7365 14.2499 16.587 14.7439 15.7344 15.549ZM33.25 18.9999C33.25 20.2597 32.7496 21.4679 31.8588 22.3587C30.968 23.2495 29.7598 23.7499 28.5 23.7499C27.2402 23.7499 26.032 23.2495 25.1412 22.3587C24.2504 21.4679 23.75 20.2597 23.75 18.9999C23.75 17.7401 24.2504 16.532 25.1412 15.6412C26.032 14.7504 27.2402 14.2499 28.5 14.2499C29.7598 14.2499 30.968 14.7504 31.8588 15.6412C32.7496 16.532 33.25 17.7401 33.25 18.9999Z" fill="#00A043"/>
</g>
<defs>
<clipPath id="clip0">
<rect width="38" height="38" fill="white"/>
</clipPath>
</defs>
</svg>
