<svg width="27" height="28" viewBox="0 0 27 28" fill="none" xmlns="http://www.w3.org/2000/svg">
<g clip-path="url(#clip0)">
<path d="M2.56036 15.6933L11.8707 26.5321C12.6854 27.4353 13.6358 27.8869 14.722 27.8869C15.6918 27.8869 16.5259 27.6046 17.2242 27.0401L25.3125 20.4353C26.0884 19.7579 26.5345 18.9111 26.6509 17.895C26.7673 16.9541 26.4763 16.0321 25.778 15.1288L16.4677 4.29012C15.4591 3.01055 14.1401 2.20141 12.5108 1.8627L4.42243 0.0562469C3.64657 -0.16956 2.9095 -0.000204754 2.21122 0.564311L1.222 1.41109C0.6401 1.82506 0.349152 2.50248 0.349152 3.44334L0.814669 11.5159C1.00863 13.1342 1.59053 14.5267 2.56036 15.6933ZM3.95691 2.37076L12.1617 4.29012C13.0151 4.47829 13.8685 4.98635 14.722 5.81431L24.0323 16.653C24.3427 16.9541 24.4397 17.2928 24.3233 17.6692C24.3233 17.895 24.1487 18.2149 23.7996 18.6288L15.7112 25.2337C15.4397 25.4595 15.1099 25.563 14.722 25.5442C14.3341 25.5253 14.0431 25.3842 13.8492 25.1208L4.53881 14.2821C3.80174 13.3788 3.4332 12.4568 3.4332 11.5159L2.85131 3.21754L3.95691 2.37076ZM7.27372 6.32238C7.27372 6.66109 7.15734 6.94334 6.92458 7.16915C6.69182 7.39496 6.40088 7.50786 6.05174 7.50786C5.7026 7.50786 5.41165 7.39496 5.17889 7.16915C4.94613 6.94334 4.82976 6.66109 4.82976 6.32238C4.82976 5.98367 4.94613 5.70141 5.17889 5.4756C5.41165 5.2498 5.7026 5.13689 6.05174 5.13689C6.40088 5.13689 6.69182 5.2498 6.92458 5.4756C7.15734 5.70141 7.27372 5.98367 7.27372 6.32238ZM7.91381 14.7337L19.319 18.2337H19.7263C20.2694 18.2337 20.6767 17.9514 20.9483 17.3869C21.0647 17.0858 21.0453 16.7847 20.8901 16.4837C20.7349 16.1826 20.5022 15.9756 20.1918 15.8627L8.78665 12.3627C8.47631 12.2122 8.15626 12.2122 7.82652 12.3627C7.49678 12.5132 7.27372 12.739 7.15734 13.0401C6.92458 13.9057 7.17674 14.4702 7.91381 14.7337ZM17.2242 20.153C17.2242 20.6423 17.0496 21.0657 16.7004 21.4232C16.3513 21.7807 15.9052 21.9595 15.3621 21.9595C14.819 21.9595 14.3729 21.7807 14.0237 21.4232C13.6746 21.0657 13.5 20.6423 13.5 20.153C13.5 19.6638 13.6843 19.2404 14.0528 18.8829C14.4214 18.5253 14.8578 18.3466 15.3621 18.3466C15.8664 18.3466 16.3028 18.5253 16.6714 18.8829C17.0399 19.2404 17.2242 19.6638 17.2242 20.153ZM13.5 10.5562C13.5 11.0455 13.3157 11.4689 12.9472 11.8264C12.5787 12.1839 12.1423 12.3627 11.6379 12.3627C11.1336 12.3627 10.6972 12.1839 10.3287 11.8264C9.96014 11.4689 9.77588 11.0455 9.77588 10.5562C9.77588 10.067 9.95044 9.64361 10.2996 9.28609C10.6487 8.92856 11.0948 8.7498 11.6379 8.7498C12.181 8.7498 12.6272 8.92856 12.9763 9.28609C13.3254 9.64361 13.5 10.067 13.5 10.5562Z" fill="#00A043"/>
</g>
<defs>
<clipPath id="clip0">
<rect width="27" height="28" fill="white"/>
</clipPath>
</defs>
</svg>
