<svg width="32" height="32" viewBox="0 0 32 32" fill="none" xmlns="http://www.w3.org/2000/svg">
<g clip-path="url(#clip0)">
<path d="M8 12C9.06087 12 10.0783 12.4214 10.8284 13.1715C11.5786 13.9217 12 14.9391 12 16C12 17.0608 11.5786 18.0783 10.8284 18.8284C10.0783 19.5785 9.06087 20 8 20C6.93913 20 5.92172 19.5785 5.17157 18.8284C4.42143 18.0783 4 17.0608 4 16C4 14.9391 4.42143 13.9217 5.17157 13.1715C5.92172 12.4214 6.93913 12 8 12ZM13.25 13.094C12.6478 12.0045 11.7217 11.1292 10.6 10.5896C9.47822 10.0499 8.21637 9.87244 6.98929 10.0819C5.76221 10.2913 4.63064 10.8772 3.75138 11.7584C2.87213 12.6396 2.28872 13.7724 2.082 15H1C0.734784 15 0.48043 15.1053 0.292893 15.2929C0.105357 15.4804 0 15.7348 0 16C0 16.2652 0.105357 16.5195 0.292893 16.7071C0.48043 16.8946 0.734784 17 1 17H2.082C2.33019 18.4858 3.12822 19.8239 4.31757 20.7485C5.50691 21.6731 7.00053 22.1164 8.50169 21.9905C10.0028 21.8645 11.4017 21.1785 12.4203 20.0686C13.439 18.9588 14.0029 17.5064 14 16C14 15.4695 14.2107 14.9608 14.5858 14.5858C14.9609 14.2107 15.4696 14 16 14C16.5304 14 17.0391 14.2107 17.4142 14.5858C17.7893 14.9608 18 15.4695 18 16C17.9971 17.5064 18.561 18.9588 19.5797 20.0686C20.5983 21.1785 21.9972 21.8645 23.4983 21.9905C24.9995 22.1164 26.4931 21.6731 27.6824 20.7485C28.8718 19.8239 29.6698 18.4858 29.918 17H31C31.2652 17 31.5196 16.8946 31.7071 16.7071C31.8946 16.5195 32 16.2652 32 16C32 15.7348 31.8946 15.4804 31.7071 15.2929C31.5196 15.1053 31.2652 15 31 15H29.918C29.7113 13.7724 29.1279 12.6396 28.2486 11.7584C27.3694 10.8772 26.2378 10.2913 25.0107 10.0819C23.7836 9.87244 22.5218 10.0499 21.4 10.5896C20.2783 11.1292 19.3522 12.0045 18.75 13.094C18.0077 12.3899 17.0231 11.9982 16 12C14.936 12 13.968 12.416 13.25 13.094ZM28 16C28 17.0608 27.5786 18.0783 26.8284 18.8284C26.0783 19.5785 25.0609 20 24 20C22.9391 20 21.9217 19.5785 21.1716 18.8284C20.4214 18.0783 20 17.0608 20 16C20 14.9391 20.4214 13.9217 21.1716 13.1715C21.9217 12.4214 22.9391 12 24 12C25.0609 12 26.0783 12.4214 26.8284 13.1715C27.5786 13.9217 28 14.9391 28 16Z" fill="#828282"/>
</g>
<defs>
<clipPath id="clip0">
<rect width="32" height="32" fill="white"/>
</clipPath>
</defs>
</svg>
